<?xml version="1.0" standalone="no"?>
<!DOCTYPE svg PUBLIC "-//W3C//DTD SVG 20010904//EN"
 "http://www.w3.org/TR/2001/REC-SVG-20010904/DTD/svg10.dtd">
<svg version="1.0" xmlns="http://www.w3.org/2000/svg"
 width="500.000000pt" height="500.000000pt" viewBox="0 0 500.000000 500.000000"
 preserveAspectRatio="xMidYMid meet">

<g transform="translate(0.000000,500.000000) scale(0.100000,-0.100000)"
fill="#000000" stroke="none">
<path d="M1425 4460 c-166 -10 -224 -19 -328 -55 -264 -88 -431 -283 -505
-585 -28 -114 -32 -257 -32 -1245 0 -1062 5 -1189 45 -1338 39 -147 104 -258
215 -368 144 -142 307 -209 560 -230 81 -7 512 -9 1220 -6 1180 4 1139 2 1294
56 181 64 348 204 429 359 64 123 90 221 107 396 14 149 14 2134 0 2247 -30
235 -103 402 -236 534 -119 120 -252 185 -454 222 -73 13 -231 16 -1130 18
-575 2 -1108 -1 -1185 -5z m2070 -561 c181 -90 221 -350 77 -497 -68 -69 -129
-96 -222 -96 -66 -1 -85 4 -141 31 -71 35 -115 77 -150 144 -20 37 -23 59 -23
139 0 83 3 101 26 146 79 150 277 211 433 133z m-500 -17 c-66 -92 -79 -134
-79 -262 -1 -112 0 -117 34 -183 81 -160 223 -247 401 -247 84 0 184 24 213
51 6 5 14 9 18 9 4 0 8 -267 8 -594 l0 -594 -26 -31 -26 -31 -1035 0 -1035 0
-29 29 -29 29 0 904 c1 730 3 906 14 920 37 49 19 48 838 48 l768 0 -35 -48z
m-1115 -2247 c18 -22 15 -66 -6 -82 -56 -41 -124 27 -77 79 20 22 66 24 83 3z
m1870 -85 l0 -91 22 20 c53 50 147 33 185 -34 20 -36 23 -54 23 -167 l0 -128
-44 0 -44 0 -3 121 c-4 132 -12 149 -69 149 -57 0 -65 -17 -68 -149 l-4 -121
-44 0 -44 0 0 245 0 245 45 0 45 0 0 -90z m-2480 58 c46 -24 77 -59 82 -93 3
-17 -3 -20 -38 -23 -35 -3 -46 2 -72 27 -49 49 -132 33 -132 -24 0 -29 23 -43
128 -75 92 -29 122 -61 122 -128 0 -62 -27 -104 -82 -131 -107 -51 -244 -3
-273 97 -6 20 -3 22 39 22 35 0 51 -6 70 -25 47 -46 118 -44 143 5 19 38 -3
61 -83 87 -98 31 -131 51 -148 88 -21 43 -20 73 3 115 39 74 154 102 241 58z
m1316 0 c46 -21 84 -67 84 -100 0 -14 -9 -18 -41 -18 -32 0 -47 6 -71 30 -31
32 -61 37 -103 18 -18 -8 -25 -19 -25 -38 0 -36 15 -47 94 -70 85 -24 122 -47
141 -86 60 -127 -85 -244 -237 -191 -47 17 -77 43 -94 84 -8 18 -14 35 -14 38
0 3 20 5 44 5 36 0 50 -6 74 -30 39 -39 92 -41 127 -5 14 13 25 29 25 35 0 22
-42 50 -104 69 -122 38 -156 68 -156 138 0 112 137 177 256 121z m262 -65 c3
-43 3 -43 43 -43 38 0 39 -1 39 -35 0 -34 -1 -35 -40 -35 l-41 0 3 -97 3 -98
38 -3 38 -3 -3 -42 c-3 -38 -6 -42 -33 -45 -36 -4 -101 16 -118 36 -7 9 -14
61 -17 131 -5 111 -6 116 -27 119 -19 3 -23 10 -23 38 0 30 3 34 25 34 23 0
25 4 25 46 l0 45 43 -3 c42 -3 42 -3 45 -45z m-1193 -47 c62 -26 75 -62 75
-213 l0 -133 -45 0 -45 0 0 108 c0 129 -10 156 -61 160 -61 5 -73 -20 -77
-154 l-4 -114 -44 0 -44 0 0 175 0 175 45 0 c40 0 45 -3 45 -22 0 -15 3 -19 8
-11 11 18 64 43 90 43 12 0 38 -6 57 -14z m565 -15 c46 -34 65 -79 64 -157 -1
-83 -20 -126 -74 -161 -41 -28 -94 -29 -137 -3 l-33 20 0 -80 0 -80 -50 0 -50
0 0 241 0 240 48 -3 c38 -2 47 -6 46 -21 -2 -16 0 -17 15 -3 43 39 122 43 171
7z m970 16 c19 -7 44 -27 57 -46 21 -31 23 -45 23 -167 l0 -134 -45 0 c-36 0
-45 3 -45 18 0 10 -3 13 -8 6 -23 -35 -102 -45 -152 -19 -32 16 -60 61 -60 94
0 65 70 111 166 111 l56 0 -7 27 c-8 34 -21 43 -62 43 -22 0 -37 -7 -45 -20
-9 -14 -24 -20 -50 -20 -33 0 -38 3 -38 23 1 70 116 116 210 84z m347 -6 c35
-16 73 -61 73 -86 0 -12 -88 -4 -100 10 -25 30 -116 8 -96 -23 5 -9 49 -22
119 -37 99 -21 103 -150 7 -200 -37 -19 -113 -19 -150 0 -35 18 -70 61 -70 86
0 29 72 27 92 -2 27 -41 129 -19 112 24 -3 10 -28 21 -62 28 -105 23 -132 46
-132 114 0 84 110 130 207 86z m-1657 -166 l0 -175 -45 0 -45 0 0 175 0 175
45 0 45 0 0 -175z"/>
<path d="M1718 2809 c-21 -12 -24 -69 -6 -87 8 -8 60 -12 169 -12 171 0 189 5
189 55 0 49 -19 55 -183 55 -85 0 -160 -5 -169 -11z"/>
<path d="M2197 2802 c-22 -24 -21 -55 1 -75 17 -15 64 -17 473 -17 341 0 458
3 467 12 20 20 15 76 -7 88 -13 6 -178 10 -469 10 -422 0 -450 -1 -465 -18z"/>
<path d="M1712 2574 c-30 -20 -30 -68 0 -88 20 -14 95 -16 613 -16 651 0 635
-1 635 60 0 61 16 60 -635 60 -518 0 -593 -2 -613 -16z"/>
<path d="M1707 2332 c-22 -25 -21 -48 3 -72 19 -19 33 -20 463 -20 417 0 445
1 460 18 20 22 22 63 5 80 -9 9 -126 12 -463 12 -425 0 -453 -1 -468 -18z"/>
<path d="M2083 1420 c-31 -13 -43 -41 -43 -100 0 -42 4 -55 26 -75 34 -32 68
-32 101 1 23 23 25 31 21 85 -2 33 -11 66 -19 74 -19 19 -59 26 -86 15z"/>
<path d="M3082 1289 c-18 -7 -23 -15 -20 -36 3 -26 6 -28 48 -28 39 0 46 4 58
28 7 15 10 32 7 37 -8 12 -62 12 -93 -1z"/>
</g>
</svg>
